<?xml version="1.0" encoding="UTF-8"?>
<svg id="Layer_1" xmlns="http://www.w3.org/2000/svg" version="1.1" viewBox="0 0 297.5 85.1">
  <!-- Generator: Adobe Illustrator 30.2.1, SVG Export Plug-In . SVG Version: 2.1.1 Build 1)  -->
  <defs>
    <style>
      .st0 {
        fill: #010101;
      }
    </style>
  </defs>
  <rect class="st0" x="128.6" y="8.6" width=".8" height="62.5"/>
  <g>
    <path class="st0" d="M147.7,16.7c0-1.2,0-2.2-.1-3,0-.8-.2-1.5-.4-2-.2-.5-.4-.9-.6-1.1-.2-.2-.5-.3-.8-.3v-1.1h8.7c1.6,0,3,.1,4.3.4,1.3.3,2.4.8,3.3,1.4.9.6,1.6,1.4,2.1,2.3.5.9.8,2,.8,3.3s-.3,2.4-.8,3.3c-.5.9-1.2,1.7-2.1,2.2-.9.6-2,1-3.3,1.3-1.3.3-2.7.4-4.3.4h-2.5v3.3c0,2.4.2,4.1.5,5,.3,1,.8,1.5,1.4,1.5v1.1h-8.1v-1.1c.6,0,1.1-.5,1.4-1.5.3-1,.5-2.7.5-5v-10.4ZM152,22.8h2.5c.9,0,1.7-.1,2.4-.4.7-.3,1.4-.7,1.9-1.3.5-.5.9-1.2,1.2-1.9.3-.8.4-1.6.4-2.5s-.1-1.8-.4-2.5c-.3-.8-.7-1.5-1.2-2-.5-.6-1.2-1-1.9-1.3-.7-.3-1.6-.5-2.4-.5h-2.5v12.6Z"/>
    <path class="st0" d="M174.9,15.6v2.4c.6-.8,1.3-1.4,2.1-1.9.8-.5,1.8-.8,2.9-.8s1.4.1,1.9.3c.5.2,1,.5,1.3.8.3.3.6.7.8,1.2.2.4.3.9.3,1.3,0,.7-.2,1.3-.6,1.8-.4.5-.9.8-1.5.8s-.5,0-.8-.2c-.3-.1-.5-.3-.8-.6-.2-.3-.4-.7-.6-1.1-.1-.5-.2-1-.2-1.6s0-.2,0-.4c0-.2,0-.3-.1-.5,0-.2-.2-.3-.3-.4-.1-.1-.3-.2-.6-.2-.6,0-1.3.3-2,1-.7.7-1.3,1.8-1.8,3.3v6.3c0,2.4.2,4.1.5,5,.3,1,.8,1.5,1.4,1.5v1.1h-8.1v-1.1c.6,0,1.1-.5,1.4-1.5.3-1,.5-2.7.5-5v-7.6c0-.6,0-1.1-.2-1.5-.1-.4-.3-.7-.4-.9-.2-.2-.4-.4-.6-.4-.2,0-.5-.1-.7-.1v-1.1h6.3Z"/>
    <path class="st0" d="M189,19.6c0-.6,0-1.1-.2-1.5-.1-.4-.3-.7-.4-.9-.2-.2-.4-.4-.6-.4-.2,0-.5-.1-.7-.1v-1.1h6.3v11.6c0,2.4.2,4.1.5,5,.3,1,.8,1.5,1.4,1.5v1.1h-8.1v-1.1c.6,0,1.1-.5,1.4-1.5.3-1,.5-2.7.5-5v-7.6ZM188.4,11.1c0-.8.2-1.4.7-1.9.5-.5,1.1-.7,2-.7s1.5.2,1.9.7c.5.5.7,1.1.7,1.9s-.2,1.5-.7,2c-.5.5-1.1.7-1.9.7s-1.5-.2-2-.7c-.5-.5-.7-1.1-.7-2Z"/>
    <path class="st0" d="M205.2,15.6v1.1c-.6,0-.9.5-.9,1.6,0,1.1.5,2.7,1.3,4.9l2.1,5.6,2.1-5.6c.8-2.2,1.3-3.9,1.3-4.9,0-1-.3-1.6-.9-1.6v-1.1h4.9v1.1c-.6,0-1.3.5-1.9,1.6-.7,1.1-1.4,2.7-2.3,4.9l-4.4,11.6h-1.1l-4.4-11.6c-.8-2.2-1.6-3.9-2.3-4.9-.7-1-1.3-1.6-2-1.6v-1.1h8.4Z"/>
    <path class="st0" d="M217.6,29c0-1.4.4-2.6,1.1-3.5s1.6-1.6,2.7-2.1c1.1-.5,2.3-.9,3.6-1.1,1.3-.2,2.5-.3,3.7-.4,0-.6,0-1.2-.2-1.8,0-.7-.3-1.3-.5-1.8-.2-.6-.5-1-1-1.4-.4-.4-1-.6-1.6-.6s-1,.1-1.4.4c-.4.3-.7.6-1,1-.3.4-.4.9-.6,1.4-.1.5-.2,1.1-.2,1.6-.1,0-.4,0-.9,0-.5,0-.9,0-1.4-.1-.5,0-.9-.2-1.3-.4-.4-.2-.6-.5-.6-1s.2-.8.5-1.3c.3-.5.8-.9,1.5-1.3.6-.4,1.4-.8,2.3-1s1.9-.4,3-.4c1.7,0,3,.3,4,.8,1,.6,1.8,1.3,2.3,2.1.5.8.9,1.8,1.1,2.7.2,1,.3,1.9.3,2.7v7.1c0,.6,0,1.1.2,1.5.1.4.3.7.4.9.2.2.4.4.6.4.2,0,.5.1.7.1v1.1h-3.9c-.5,0-.9,0-1.3-.3-.4-.2-.7-.5-.9-.9-.6.5-1.2.8-2,1.1-.8.3-1.6.4-2.6.4s-1.9-.1-2.7-.4c-.8-.3-1.5-.7-2.1-1.2-.6-.5-1-1.2-1.3-1.9-.3-.7-.5-1.6-.5-2.5ZM228.7,23.1c-.7,0-1.5.3-2.3.6-.8.3-1.5.7-2.2,1.3-.7.5-1.2,1.1-1.6,1.8s-.6,1.5-.6,2.4.4,2.2,1.2,2.9,1.8,1.1,3.2,1.1,1.7-.2,2.4-.6v-9.5Z"/>
    <path class="st0" d="M238.1,17h-1.8v-1.1c.6,0,1.3-.2,1.9-.5.6-.3,1.1-.8,1.6-1.3.5-.5.8-1.1,1.1-1.7.3-.6.4-1.2.4-1.7h1.1v4.8h3.5v1.4h-3.5v13.4c0,.3,0,.6,0,.9,0,.3.1.6.3.8.1.3.3.5.6.6s.6.3,1,.3.9-.2,1.2-.6c.4-.4.7-1.1.9-2l1,.3c0,.4-.2.8-.4,1.3-.2.5-.4,1-.8,1.4-.3.5-.8.8-1.4,1.2-.6.3-1.3.5-2.1.5s-1.3-.1-1.9-.4c-.6-.3-1.1-.7-1.5-1.2-.4-.5-.8-1.3-1-2.1-.2-.9-.4-1.9-.4-3v-11.3Z"/>
    <path class="st0" d="M253.9,24.2c0,1.3.2,2.5.5,3.5.3,1,.8,1.9,1.3,2.6.5.7,1.2,1.2,1.8,1.6.7.4,1.3.5,2,.5s1.6-.1,2.2-.4c.6-.3,1.2-.8,1.9-1.6l.8.7c-.3.4-.6.9-1,1.3-.4.4-.9.8-1.4,1.2-.5.3-1.2.6-1.9.8-.7.2-1.6.3-2.5.3-1.4,0-2.6-.3-3.6-.9-1-.6-1.9-1.4-2.6-2.3s-1.2-2.1-1.5-3.3c-.3-1.3-.5-2.6-.5-4,0-2.9.7-5.1,2.2-6.7,1.5-1.5,3.5-2.3,6-2.3s4.4.8,5.7,2.3c1.2,1.5,1.9,3.7,1.9,6.7h-11.3ZM253.9,23.2h6.8c0-.9,0-1.7-.1-2.5,0-.8-.2-1.5-.4-2.2-.2-.6-.5-1.1-.9-1.5s-.9-.6-1.6-.6-1.2.2-1.6.6c-.5.4-.8.9-1.1,1.5-.3.6-.5,1.4-.7,2.2-.2.8-.2,1.7-.3,2.5Z"/>
    <path class="st0" d="M150.1,57.9c0,1.7.2,3.2.6,4.7.4,1.4,1,2.7,1.8,3.7.8,1,1.7,1.9,2.8,2.4,1.1.6,2.3.9,3.6.9s1.8-.1,2.6-.4c.8-.3,1.6-.7,2.2-1.2.7-.5,1.2-1.1,1.7-1.9.4-.7.7-1.5.8-2.4h.8v4.4c-.5.4-1.2.8-2,1.2-.8.3-1.6.6-2.5.9-.9.2-1.7.4-2.6.5-.9.1-1.7.2-2.5.2-1.7,0-3.3-.3-4.8-.9-1.5-.6-2.7-1.5-3.8-2.6-1.1-1.1-1.9-2.5-2.4-4.1-.6-1.6-.9-3.4-.9-5.3s.3-3.7.9-5.3c.6-1.6,1.4-3,2.4-4.1,1-1.1,2.3-2,3.8-2.6,1.5-.6,3.1-.9,4.8-.9s1.6,0,2.5.2c.9.1,1.8.3,2.6.5.9.2,1.7.5,2.5.9.8.3,1.4.7,2,1.2v4.4h-.8c-.1-.9-.4-1.7-.8-2.4-.4-.7-1-1.3-1.7-1.9-.7-.5-1.4-.9-2.2-1.2-.8-.3-1.7-.4-2.6-.4-1.3,0-2.5.3-3.6.9-1.1.6-2,1.4-2.8,2.4-.8,1-1.4,2.3-1.8,3.7-.4,1.4-.6,3-.6,4.7Z"/>
    <path class="st0" d="M176.2,44.4v9.8c.2-.3.5-.7.8-1.1.3-.4.7-.7,1.1-1,.4-.3.9-.6,1.4-.8.5-.2,1.1-.3,1.8-.3s1.4.1,2.1.4c.7.3,1.4.7,2,1.2.6.5,1.1,1.2,1.5,2.1.4.8.6,1.8.6,3v5.2c0,2.4.2,4.1.5,5,.3,1,.8,1.5,1.4,1.5v1.1h-8.1v-1.1c.6,0,1.1-.5,1.4-1.5.3-1,.5-2.7.5-5v-5.2c0-.9-.1-1.6-.3-2.2-.2-.6-.5-1.1-.8-1.4-.3-.4-.7-.6-1.1-.8-.4-.2-.8-.2-1.2-.2-.8,0-1.5.3-2.1.8-.6.5-1.1,1.1-1.5,1.7v7.3c0,2.4.2,4.1.5,5,.3,1,.8,1.5,1.4,1.5v1.1h-8.1v-1.1c.6,0,1.1-.5,1.4-1.5.3-1,.5-2.7.5-5v-14.5c0-.6,0-1.1-.2-1.5-.1-.4-.3-.7-.4-.9-.2-.2-.4-.4-.6-.4-.2,0-.5-.1-.7-.1v-1.1h6.3Z"/>
    <path class="st0" d="M192.1,64.8c0-1.4.4-2.6,1.1-3.5s1.6-1.6,2.7-2.1c1.1-.5,2.3-.9,3.6-1.1,1.3-.2,2.5-.3,3.7-.4,0-.6,0-1.2-.2-1.8,0-.7-.3-1.3-.5-1.8-.2-.6-.5-1-1-1.4-.4-.4-1-.6-1.6-.6s-1,.1-1.4.4c-.4.3-.7.6-1,1-.3.4-.4.9-.6,1.4-.1.5-.2,1.1-.2,1.6-.1,0-.4,0-.9,0-.5,0-.9,0-1.4-.1-.5,0-.9-.2-1.3-.4-.4-.2-.6-.5-.6-1s.2-.8.5-1.3c.3-.5.8-.9,1.5-1.3.6-.4,1.4-.8,2.3-1s1.9-.4,3-.4c1.7,0,3,.3,4,.8,1,.6,1.8,1.3,2.3,2.1.5.8.9,1.8,1.1,2.7.2,1,.3,1.9.3,2.7v7.1c0,.6,0,1.1.2,1.5.1.4.3.7.4.9.2.2.4.4.6.4.2,0,.5.1.7.1v1.1h-3.9c-.5,0-.9,0-1.3-.3-.4-.2-.7-.5-.9-.9-.6.5-1.2.8-2,1.1-.8.3-1.6.4-2.6.4s-1.9-.1-2.7-.4c-.8-.3-1.5-.7-2.1-1.2-.6-.5-1-1.2-1.3-1.9-.3-.7-.5-1.6-.5-2.5ZM203.2,58.9c-.7,0-1.5.3-2.3.6-.8.3-1.5.7-2.2,1.3-.7.5-1.2,1.1-1.6,1.8s-.6,1.5-.6,2.4.4,2.2,1.2,2.9,1.8,1.1,3.2,1.1,1.7-.2,2.4-.6v-9.5Z"/>
    <path class="st0" d="M218.7,51.4v2.4c.6-.8,1.3-1.4,2.1-1.9.8-.5,1.8-.8,2.9-.8s1.4.1,1.9.3c.5.2,1,.5,1.3.8.3.3.6.7.8,1.2.2.4.3.9.3,1.3,0,.7-.2,1.3-.6,1.8-.4.5-.9.8-1.5.8s-.5,0-.8-.2c-.3-.1-.5-.3-.8-.6-.2-.3-.4-.7-.6-1.1-.1-.5-.2-1-.2-1.6s0-.2,0-.4c0-.2,0-.3-.1-.5,0-.2-.2-.3-.3-.4-.1-.1-.3-.2-.6-.2-.6,0-1.3.3-2,1-.7.7-1.3,1.8-1.8,3.3v6.3c0,2.4.2,4.1.5,5,.3,1,.8,1.5,1.4,1.5v1.1h-8.1v-1.1c.6,0,1.1-.5,1.4-1.5.3-1,.5-2.7.5-5v-7.6c0-.6,0-1.1-.2-1.5-.1-.4-.3-.7-.4-.9-.2-.2-.4-.4-.6-.4-.2,0-.5-.1-.7-.1v-1.1h6.3Z"/>
    <path class="st0" d="M233.1,52.8h-1.8v-1.1c.6,0,1.3-.2,1.9-.5.6-.3,1.1-.8,1.6-1.3.5-.5.8-1.1,1.1-1.7.3-.6.4-1.2.4-1.7h1.1v4.8h3.5v1.4h-3.5v13.4c0,.3,0,.6,0,.9,0,.3.1.6.3.8.1.3.3.5.6.6s.6.3,1,.3.9-.2,1.2-.6c.4-.4.7-1.1.9-2l1,.3c0,.4-.2.8-.4,1.3-.2.5-.4,1-.8,1.4-.3.5-.8.8-1.4,1.2-.6.3-1.3.5-2.1.5s-1.3-.1-1.9-.4c-.6-.3-1.1-.7-1.5-1.2-.4-.5-.8-1.3-1-2.1-.2-.9-.4-1.9-.4-3v-11.3Z"/>
    <path class="st0" d="M248.9,60c0,1.3.2,2.5.5,3.5.3,1,.8,1.9,1.3,2.6.5.7,1.2,1.2,1.8,1.6.7.4,1.3.5,2,.5s1.6-.1,2.2-.4c.6-.3,1.2-.8,1.9-1.6l.8.7c-.3.4-.6.9-1,1.3-.4.4-.9.8-1.4,1.2-.5.3-1.2.6-1.9.8-.7.2-1.6.3-2.5.3-1.4,0-2.6-.3-3.6-.9-1-.6-1.9-1.4-2.6-2.3s-1.2-2.1-1.5-3.3c-.3-1.3-.5-2.6-.5-4,0-2.9.7-5.1,2.2-6.7,1.5-1.5,3.5-2.3,6-2.3s4.4.8,5.7,2.3c1.2,1.5,1.9,3.7,1.9,6.7h-11.3ZM249,59h6.8c0-.9,0-1.7-.1-2.5,0-.8-.2-1.5-.4-2.2-.2-.6-.5-1.1-.9-1.5s-.9-.6-1.6-.6-1.2.2-1.6.6c-.5.4-.8.9-1.1,1.5-.3.6-.5,1.4-.7,2.2-.2.8-.2,1.7-.3,2.5Z"/>
    <path class="st0" d="M269,51.4v2.4c.6-.8,1.3-1.4,2.1-1.9.8-.5,1.8-.8,2.9-.8s1.4.1,1.9.3c.5.2,1,.5,1.3.8.3.3.6.7.8,1.2.2.4.3.9.3,1.3,0,.7-.2,1.3-.6,1.8-.4.5-.9.8-1.5.8s-.5,0-.8-.2c-.3-.1-.5-.3-.8-.6-.2-.3-.4-.7-.6-1.1-.1-.5-.2-1-.2-1.6s0-.2,0-.4c0-.2,0-.3-.1-.5,0-.2-.2-.3-.3-.4-.1-.1-.3-.2-.6-.2-.6,0-1.3.3-2,1-.7.7-1.3,1.8-1.8,3.3v6.3c0,2.4.2,4.1.5,5,.3,1,.8,1.5,1.4,1.5v1.1h-8.1v-1.1c.6,0,1.1-.5,1.4-1.5.3-1,.5-2.7.5-5v-7.6c0-.6,0-1.1-.2-1.5-.1-.4-.3-.7-.4-.9-.2-.2-.4-.4-.6-.4-.2,0-.5-.1-.7-.1v-1.1h6.3Z"/>
    <path class="st0" d="M281.5,64.7h1.1c.1.5.3,1,.6,1.6.3.6.7,1.2,1.1,1.7.5.5,1,.9,1.6,1.3.6.4,1.4.5,2.2.5s1.6-.2,2.1-.7c.5-.4.8-1,.8-1.6,0-.9-.2-1.6-.7-2.2-.5-.6-1.1-1.1-1.8-1.6-.7-.5-1.5-.9-2.3-1.3-.8-.4-1.6-.9-2.3-1.4-.7-.5-1.3-1.2-1.8-1.9-.5-.7-.7-1.6-.7-2.7s.2-1.8.6-2.5c.4-.7.9-1.2,1.5-1.6.6-.4,1.3-.7,2.1-.9.8-.2,1.5-.3,2.3-.3,1.3,0,2.4.2,3.4.7,1,.5,1.8,1.1,2.4,2v3.2s-1,0-1,0c-.1-.5-.3-1-.4-1.6-.2-.6-.4-1.1-.8-1.6-.3-.5-.7-.9-1.3-1.2-.5-.3-1.2-.5-2-.5s-1.1,0-1.4.3c-.4.2-.7.4-.9.6-.2.3-.4.6-.5.9,0,.3-.1.6-.1.9,0,.7.2,1.3.7,1.8.5.5,1,1,1.7,1.4.7.4,1.4.9,2.2,1.3.8.4,1.5.9,2.2,1.5.7.5,1.3,1.2,1.7,1.9.5.7.7,1.5.7,2.5s-.2,1.9-.6,2.6-.9,1.3-1.5,1.8c-.6.5-1.3.8-2.1,1s-1.6.3-2.4.3c-1.2,0-2.4-.2-3.6-.7-1.2-.5-2.1-1.1-2.8-2l-.4-3.5Z"/>
  </g>
  <g>
    <path class="st0" d="M48.8,62.3c0-3.3-.6-6.1-1.7-8.4-1.2-2.3-2.7-4.3-4.6-5.9-1.9-1.6-4.1-3-6.6-4.1-2.4-1.1-5-2.2-7.5-3.2-2.6-1-5.1-2-7.5-3.1-2.5-1.1-4.6-2.4-6.6-3.9-1.9-1.5-3.5-3.3-4.6-5.4-1.2-2.1-1.7-4.7-1.7-7.7s.7-6.5,2.2-8.9c1.5-2.4,3.3-4.2,5.6-5.6,2.2-1.4,4.7-2.4,7.3-3,2.7-.6,5.2-.9,7.5-.9s3.6.2,5.3.5c1.8.3,3.5.7,5.1,1.3s3.1,1.3,4.4,2.1c1.3.9,2.4,1.8,3.3,2.9v10h-2.8c-.3-1.2-.8-2.6-1.6-4.3-.8-1.6-1.8-3.2-3-4.6-1.3-1.4-2.8-2.7-4.6-3.7-1.8-1-3.9-1.5-6.3-1.5s-3.2.2-4.7.7c-1.5.5-2.9,1.1-4.1,2.1-1.2.9-2.2,2.1-2.9,3.4-.7,1.3-1.1,2.9-1.1,4.7s.6,4.3,1.8,5.9c1.2,1.6,2.8,3,4.7,4.1,2,1.2,4.2,2.2,6.7,3.2,2.5.9,5.1,2,7.7,3,2.6,1.1,5.2,2.3,7.7,3.7,2.5,1.4,4.8,3.1,6.8,5.1s3.6,4.4,4.9,7.3c1.2,2.8,1.9,6.2,1.9,10.3,0,4.3-.6,8-2,11.2s-3.4,5.8-5.9,7.9c-2.6,2.1-5.6,3.6-9.2,4.6-3.6,1-7.6,1.5-12,1.5s-6.6-.4-9.9-1.1c-3.3-.7-6.3-1.8-9-3.4-2.7-1.5-4.8-3.5-6.5-6-1.7-2.5-2.5-5.5-2.5-9s.6-5.5,1.8-7.4c1.2-1.9,2.7-3.4,4.5-4.5,1.8-1.1,3.7-1.8,5.8-2.2,2.1-.4,3.9-.6,5.6-.6s4.2.2,6.2.7c2,.5,3.8,1.1,5.3,1.9,1.6.8,2.8,1.8,3.8,2.9.9,1.1,1.4,2.4,1.4,3.8s-.6,3.4-1.8,4.6-2.9,1.8-5.1,1.8-2.6-.3-3.4-1c-.8-.6-1.3-1.4-1.7-2.4-.4-.9-.7-2-.9-3.1-.2-1.1-.5-2.1-.8-3.1-.3-.9-.8-1.7-1.4-2.4-.6-.6-1.5-1-2.8-1s-2.2.3-3.1.9c-.9.6-1.7,1.4-2.3,2.5-.6,1-1.1,2.3-1.4,3.6-.3,1.4-.5,2.8-.5,4.4s.3,4,.8,6c.5,2,1.5,3.9,2.8,5.5,1.3,1.7,3.2,3,5.6,4,2.4,1,5.6,1.6,9.4,1.6s5.5-.5,7.8-1.4c2.2-.9,4.1-2.3,5.7-3.9,1.6-1.7,2.7-3.6,3.5-5.9.8-2.3,1.2-4.8,1.2-7.4Z"/>
    <path class="st0" d="M72,27.3c-3.1-5-6-8.9-8.7-11.6-2.7-2.8-4.8-4.2-6.3-4.2v-2.6h21.5v2.6c-1.4,0-1.6,1.4-.4,4.2,1.2,2.8,3.2,6.7,6.3,11.6l5.3,8.6,6.4-8.6c1.7-2.3,3.2-4.4,4.3-6.4,1.2-1.9,2-3.6,2.6-5,.5-1.4.8-2.5.7-3.3,0-.8-.5-1.2-1.3-1.2v-2.6h12.5v2.6c-.8,0-1.7.4-2.7,1.2-1.1.8-2.3,1.9-3.6,3.3-1.3,1.4-2.7,3.1-4.3,5-1.6,1.9-3.2,4.1-5,6.4l-8.2,11v14.2c0,5.8.4,9.9,1.2,12.2.8,2.4,1.9,3.6,3.4,3.6v2.6h-19.6v-2.6c1.5,0,2.6-1.2,3.4-3.6.8-2.4,1.2-6.5,1.2-12.2v-11.1l-8.8-14.2Z"/>
  </g>
</svg>